# xmcd CD database file
#
# Track frame offsets:
#	150
#	18149
#	38977
#
# Disc length: 758 seconds
#
# Revision: 1
# Processed by: cddbd v1.5.1PL0 Copyright (c) Steve Scherf et al.
# Submitted via: CDex 1.40Beta9
#
DISCID=1802f403
DTITLE=Lisa Stansfield - Treat Me Like A Woman
DYEAR=2005
DGENRE=misc
TTITLE0=Treat Me Like A Woman
TTITLE1=Easier
TTITLE2=Love Without A Name
EXTD=YEAR: 2005
EXTT0=
EXTT1=
EXTT2=
PLAYORDER=
